Patient4_TMGait_0pt2_03_left_09_GRF.mot
version=1
nRows=65
nColumns=19
inDegrees=no
endheader
time	F1x	F1y	F1z	M1x	M1y	M1z	F2x	F2y	F2z	M2x	M2y	M2z	EC1x	EC1y	EC1z	EC2x	EC2y	EC2z
18.08	-5.995	1.6467	0.68014	-0.97134	-2.4617	4.3488	-14.1258	813.3495	-54.9936	273.5801	58.9279	802.2577	-0.0592	0.0182	-0.0073	-0.0462	0.0165	0.9585
18.1011	-4.5339	1.3304	0.68065	-0.72282	-2.0169	3.148	-16.3658	838.3887	-53.7836	282.1238	58.0028	824.8606	-0.0592	0.0182	-0.0073	-0.0462	0.0165	0.9585
18.1223	-3.1772	0.93463	0.62867	-0.46998	-1.5548	1.9961	-18.2449	862.5934	-52.5496	290.4147	56.8212	846.2779	-0.0592	0.0182	-0.0073	-0.0462	0.0165	0.9585
18.1434	-2.07	0.55597	0.55861	-0.25334	-1.1525	1.0403	-19.5857	881.8523	-51.2753	297.0483	55.3314	862.611	-0.0592	0.0182	-0.0073	-0.0462	0.0165	0.9585
18.1646	-1.2546	0.24146	0.49069	-0.088234	-0.84403	0.32384	-20.2674	892.8021	-49.8603	300.8724	53.4284	870.6983	-0.0592	0.0182	-0.0073	-0.0462	0.0165	0.9585
18.1857	-0.71275	-0.0011327	0.43688	0.027932	-0.63509	-0.17158	-20.1968	893.6271	-48.1859	301.2625	51.0047	868.8667	-0.0592	0.0182	-0.0073	-0.0462	0.0165	0.9585
18.2069	-0.39989	-0.19092	0.40327	0.10893	-0.51613	-0.49711	-19.3371	884.2447	-46.1961	298.1812	48.0317	857.0996	-0.0592	0.0182	-0.0073	-0.0462	0.0165	0.9585
18.228	-0.26342	-0.36823	0.39129	0.1747	-0.47134	-0.72587	-17.7182	866.0961	-43.9552	292.1044	44.6143	836.8321	-0.0592	0.0182	-0.0073	-0.0462	0.0165	0.9585
18.2491	-0.25285	-0.5889	0.39998	0.24854	-0.48369	-0.94356	-15.4307	841.7038	-41.6374	283.8723	40.9758	810.5178	-0.0592	0.0182	-0.0073	-0.0462	0.0165	0.9585
18.2703	-0.32579	-0.912	0.42203	0.35559	-0.53238	-1.2325	-12.611	814.1421	-39.4695	274.513	37.3939	781.1141	-0.0592	0.0182	-0.0073	-0.0462	0.0165	0.9585
18.2914	-0.44573	-1.3957	0.44758	0.51971	-0.59563	-1.6739	-9.4214	786.4895	-37.6605	265.0632	34.126	751.5664	-0.0592	0.0182	-0.0073	-0.0462	0.0165	0.9585
18.3126	-0.57353	-2.0873	0.46369	0.757	-0.64895	-2.3312	-6.032	761.3717	-36.3569	256.4168	31.3641	724.3751	-0.0592	0.0182	-0.0073	-0.0462	0.0165	0.9585
18.3337	-0.67234	-3.0002	0.4531	1.0705	-0.66584	-3.2286	-2.6061	740.6994	-35.6232	249.2342	29.2157	701.3457	-0.0592	0.0182	-0.0073	-0.0462	0.0165	0.9585
18.3549	-0.71014	-4.0894	0.39364	1.4426	-0.6162	-4.3255	0.71513	725.5955	-35.4381	243.9156	27.7023	683.5187	-0.0592	0.0182	-0.0073	-0.0462	0.0165	0.9585
18.376	-0.65406	-5.2194	0.25817	1.8249	-0.46247	-5.4824	3.8312	716.436	-35.7122	240.6122	26.7719	671.218	-0.0592	0.0182	-0.0073	-0.0462	0.0165	0.9585
18.3971	-0.46895	-6.1234	0.018406	2.1233	-0.16209	-6.4239	6.6845	712.9302	-36.3292	239.2487	26.3367	664.1359	-0.0592	0.0182	-0.0073	-0.0462	0.0165	0.9585
18.4183	-0.11904	-6.3578	-0.34857	2.1835	0.32455	-6.6991	9.2631	714.2302	-37.1807	239.5571	26.3013	661.4482	-0.0592	0.0182	-0.0073	-0.0462	0.0165	0.9585
18.4394	0.42454	-5.2746	-0.84787	1.7787	1.0187	-5.6491	11.6009	719.0545	-38.1835	241.1162	26.5751	661.9375	-0.0592	0.0182	-0.0073	-0.0462	0.0165	0.9585
18.4606	1.1695	-2.0197	-1.4567	0.60978	1.904	-2.402	13.7645	725.8282	-39.2742	243.3949	27.0697	664.1442	-0.0592	0.0182	-0.0073	-0.0462	0.0165	0.9585
18.4817	2.0824	4.4223	-2.107	-1.6749	2.8997	4.0809	15.8208	732.7879	-40.3963	245.7887	27.6942	666.4785	-0.0592	0.0182	-0.0073	-0.0462	0.0165	0.9585
18.5029	3.0615	15.1041	-2.666	-5.4358	3.8331	14.8799	17.786	738.091	-41.4771	247.6597	28.3541	667.3401	-0.0592	0.0182	-0.0073	-0.0462	0.0165	0.9585
18.524	3.9038	30.8712	-2.915	-10.9559	4.4064	30.8767	19.5856	739.9133	-42.4126	248.3754	28.9578	665.2158	-0.0592	0.0182	-0.0073	-0.0462	0.0165	0.9585
18.5451	4.2736	51.968	-2.5293	-18.302	4.1625	52.3541	21.045	736.5333	-43.0608	247.3421	29.4159	658.7409	-0.0592	0.0182	-0.0073	-0.0462	0.0165	0.9585
18.5663	3.756	77.6069	-1.1181	-27.1756	2.546	78.5552	21.9369	726.558	-43.2528	244.0857	29.6375	646.8629	-0.0592	0.0182	-0.0073	-0.0462	0.0165	0.9585
18.5874	2.2894	105.9828	1.5819	-36.929	-0.74396	107.6557	22.0763	709.2565	-42.8371	238.3634	29.5433	629.0806	-0.0592	0.0182	-0.0073	-0.0462	0.0165	0.9585
18.6086	0.23699	134.8251	5.3271	-46.7916	-5.326	137.2749	21.4397	684.89	-41.7335	230.2719	29.0704	605.6778	-0.0592	0.0182	-0.0073	-0.0462	0.0165	0.9585
18.6297	-1.9852	162.5164	9.326	-56.2625	-10.2133	165.6461	20.2034	654.8342	-39.9558	220.286	28.1781	577.8083	-0.0592	0.0182	-0.0073	-0.0462	0.0165	0.9585
18.6509	-4.1158	188.9014	12.8771	-65.3512	-14.5742	192.5106	18.6745	621.3254	-37.6249	209.1679	26.8791	547.3088	-0.0592	0.0182	-0.0073	-0.0462	0.0165	0.9585
18.672	-6.0287	214.8491	15.6899	-74.3925	-18.059	218.6834	17.1578	586.8148	-34.9335	197.7464	25.2476	516.1815	-0.0592	0.0182	-0.0073	-0.0462	0.0165	0.9585
18.6931	-7.6027	241.335	17.8426	-83.7198	-20.7067	245.1013	15.8476	553.3308	-32.0988	186.7004	23.4109	486.0843	-0.0592	0.0182	-0.0073	-0.0462	0.0165	0.9585
18.7143	-8.6816	268.722	19.6213	-93.4256	-22.7636	272.0869	14.79	522.1298	-29.3438	176.4404	21.5424	458.0515	-0.0592	0.0182	-0.0073	-0.0462	0.0165	0.9585
18.7354	-9.1146	296.4778	21.3122	-103.2835	-24.4803	299.0772	13.9131	493.7042	-26.8645	167.1148	19.8297	432.4933	-0.0592	0.0182	-0.0073	-0.0462	0.0165	0.9585
18.7566	-8.8026	323.3574	23.0419	-112.8275	-25.9627	324.8173	13.1018	468.0489	-24.8003	158.704	18.4257	409.4088	-0.0592	0.0182	-0.0073	-0.0462	0.0165	0.9585
18.7777	-7.7246	347.9497	24.7476	-121.5479	-27.1522	347.9216	12.2747	444.9885	-23.2191	151.1335	17.4129	388.649	-0.0592	0.0182	-0.0073	-0.0462	0.0165	0.9585
18.7989	-5.9554	369.1978	26.2495	-129.069	-27.9086	367.4024	11.4222	424.3591	-22.12	144.338	16.7926	370.0695	-0.0592	0.0182	-0.0073	-0.0462	0.0165	0.9585
18.82	-3.6589	386.565	27.3635	-135.202	-28.12	382.8378	10.6027	406.0083	-21.4513	138.2601	16.5	353.5301	-0.0592	0.0182	-0.0073	-0.0462	0.0165	0.9585
18.8411	-1.0662	399.9851	27.9957	-139.9217	-27.7822	394.3015	9.9214	389.6946	-21.1374	132.8153	16.4341	338.8073	-0.0592	0.0182	-0.0073	-0.0462	0.0165	0.9585
18.8623	1.5514	409.8255	28.1655	-143.3513	-27.0107	402.3041	9.4839	374.9621	-21.0895	127.8495	16.4859	325.4899	-0.0592	0.0182	-0.0073	-0.0462	0.0165	0.9585
18.8834	3.916	416.8767	27.9724	-145.7606	-25.9992	407.7738	9.3538	361.0824	-21.2064	123.1187	16.5531	312.9411	-0.0592	0.0182	-0.0073	-0.0462	0.0165	0.9585
18.9046	5.7906	422.277	27.5646	-147.544	-24.9736	411.9603	9.5376	347.0996	-21.3727	118.3039	16.5456	300.3372	-0.0592	0.0182	-0.0073	-0.0462	0.0165	0.9585
18.9257	7.0202	427.4375	27.1239	-149.1908	-24.1613	416.3227	9.9752	331.979	-21.4642	113.0616	16.3844	286.7929	-0.0592	0.0182	-0.0073	-0.0462	0.0165	0.9585
18.9469	7.5431	433.9467	26.8663	-151.2515	-23.7821	422.4183	10.5456	314.8011	-21.3542	107.0884	16.0047	271.5343	-0.0592	0.0182	-0.0073	-0.0462	0.0165	0.9585
18.968	7.3709	443.4123	27.0273	-154.2812	-24.041	431.7562	11.0828	294.9257	-20.93	100.1797	15.3685	254.0372	-0.0592	0.0182	-0.0073	-0.0462	0.0165	0.9585
18.9891	6.558	457.2953	27.8184	-158.7826	-25.1038	445.6543	11.4029	272.0931	-20.112	92.2638	14.4727	234.1051	-0.0592	0.0182	-0.0073	-0.0462	0.0165	0.9585
19.0103	5.1822	476.787	29.3807	-165.1674	-27.0604	465.1429	11.3361	246.4622	-18.8737	83.4143	13.355	211.8897	-0.0592	0.0182	-0.0073	-0.0462	0.0165	0.9585
19.0314	3.3465	502.7386	31.7836	-173.7315	-29.9251	490.9153	10.7555	218.5927	-17.2485	73.8383	12.0838	187.8728	-0.0592	0.0182	-0.0073	-0.0462	0.0165	0.9585
19.0526	1.1563	535.5933	35.0447	-184.627	-33.667	523.2745	9.6004	189.3756	-15.3195	63.85	10.7416	162.8045	-0.0592	0.0182	-0.0073	-0.0462	0.0165	0.9585
19.0737	-1.2796	575.2401	39.1173	-197.8156	-38.1965	562.0055	7.8995	159.9254	-13.199	53.832	9.4125	137.6115	-0.0592	0.0182	-0.0073	-0.0462	0.0165	0.9585
19.0949	-3.8067	620.7717	43.8711	-212.9879	-43.3335	606.1391	5.7857	131.4072	-11.0087	44.176	8.1573	113.2497	-0.0592	0.0182	-0.0073	-0.0462	0.0165	0.9585
19.116	-6.2153	670.3106	49.0939	-229.5067	-48.8068	653.7669	3.4624	104.8417	-8.8648	35.2178	7.0074	90.5559	-0.0592	0.0182	-0.0073	-0.0462	0.0165	0.9585
19.1371	-8.2798	721.1159	54.5071	-246.4439	-54.2763	702.1509	1.1575	80.971	-6.8632	27.1954	5.9704	70.1434	-0.0592	0.0182	-0.0073	-0.0462	0.0165	0.9585
19.1583	-9.8013	769.9141	59.8022	-262.6948	-59.3809	748.0694	-0.90547	60.2328	-5.0747	20.2438	5.0364	52.3844	-0.0592	0.0182	-0.0073	-0.0462	0.0165	0.9585
19.1794	-10.6409	813.3583	64.6761	-277.1347	-63.7847	788.2713	-2.5182	42.8095	-3.5507	14.4123	4.1852	37.4442	-0.0592	0.0182	-0.0073	-0.0462	0.0165	0.9585
19.2006	-10.7324	848.5507	68.8437	-288.7956	-67.1966	819.9817	-3.507	28.6876	-2.32	9.6875	3.3876	25.3151	-0.0592	0.0182	-0.0073	-0.0462	0.0165	0.9585
19.2217	-10.0724	873.3815	72.0664	-296.9778	-69.3971	841.2284	-3.785	17.7331	-1.3935	6.02	2.6264	15.8861	-0.0592	0.0182	-0.0073	-0.0462	0.0165	0.9585
19.2429	-8.7053	886.6524	74.1822	-301.2858	-70.2633	850.9578	-3.444	9.7538	-0.764	3.3458	1.929	8.9995	-0.0592	0.0182	-0.0073	-0.0462	0.0165	0.9585
19.264	-6.7101	888.1267	75.1202	-301.6404	-69.7759	849.0641	-2.777	4.4554	-0.39249	1.5693	1.3608	4.4175	-0.0592	0.0182	-0.0073	-0.0462	0.0165	0.9585
19.2851	-4.1873	878.5772	74.9051	-298.2961	-68.0167	836.4309	-2.0363	1.3299	-0.2173	0.5228	0.95189	1.7148	-0.0592	0.0182	-0.0073	-0.0462	0.0165	0.9585
19.3063	-1.2641	859.7957	73.6413	-291.8479	-65.1537	814.93	-1.3686	-0.23234	-0.17111	0.00037256	0.68903	0.35763	-0.0592	0.0182	-0.0073	-0.0462	0.0165	0.9585
19.3274	1.9025	834.4778	71.4851	-283.1962	-61.4162	787.2923	-0.83928	-0.82501	-0.19647	-0.19951	0.53911	-0.18463	-0.0592	0.0182	-0.0073	-0.0462	0.0165	0.9585
19.3486	5.1472	805.948	68.6311	-273.4572	-57.0713	756.8078	-0.45611	-0.96572	-0.24973	-0.25241	0.46056	-0.37274	-0.0592	0.0182	-0.0073	-0.0462	0.0165	0.9585
19.3697	8.3364	777.7506	65.3012	-263.8271	-52.3947	726.894	-0.19144	-1.0721	-0.29805	-0.29905	0.40985	-0.58548	-0.0592	0.0182	-0.0073	-0.0462	0.0165	0.9585
19.3909	11.3975	753.1437	61.7383	-255.4112	-47.6508	700.6032	-0.001421	-1.453	-0.31599	-0.44259	0.3471	-1.1101	-0.0592	0.0182	-0.0073	-0.0462	0.0165	0.9585
19.412	14.3054	734.5971	58.2073	-249.0537	-43.0963	680.1723	0.16339	-2.3041	-0.2878	-0.74791	0.24186	-2.1274	-0.0592	0.0182	-0.0073	-0.0462	0.0165	0.9585
19.4331	17.0489	723.4113	54.9795	-245.2028	-38.9775	666.7148	0.35216	-3.693	-0.20131	-1.238	0.066708	-3.6945	-0.0592	0.0182	-0.0073	-0.0462	0.0165	0.9585
